<svg xmlns="http://www.w3.org/2000/svg" viewBox="0 0 2485.98 1301.1"><defs><style>.cls-1{fill:#a2494f;}.cls-2{fill:#575756;}.cls-3{fill:#accd66;}.cls-4{fill:#3c3c3b;}</style></defs><g id="IBEP"><path class="cls-1" d="M1626.4,481.87c-79.86,9.15-164.52,33-242.67,53.43-29.42,7.69-147.8,60.88-62.85,63.07,52.55,1.35,175.87-66.8,205.43-11.86,16.64,30.93-5.26,79.74-8.79,111.91-2.57,23.68-18.38,97.37-3.38,117.57,47.62,64.21,104-122.69,111.28-152.36C1638.67,609.93,1642.36,535.81,1626.4,481.87Z"/><path class="cls-2" d="M286.1,243.21s-13.29,271.23-7.39,325.17,26.49,110.68,96.69,120.3,94-54.75,94-116.61c0-62.88,6.06-138.66-79.81-162.6-45.09-12.55-79.09,13.33-79.09,13.33l-4.43-12.56s59.13-42.88,133.77-5.93,86.46,100.52,86.46,144.86c0,0-.66,152.4-143.67,156.55-127.78,3.7-159.85-109.07-153.57-178.36,8.3-91.27,32.38-285,32.38-285Z"/><path class="cls-2" d="M125.36,329.66l25.92,1S141.94,536,156.45,634.53c7.74,52.44,78.82,47.7,78.82,47.7v22.83S90.1,707.12,92.16,599.27C94.05,501.79,123.28,335.89,125.36,329.66Z"/><path class="cls-1" d="M166.83,276.41a33.19,33.19,0,1,1-33.18-33.2A33.19,33.19,0,0,1,166.83,276.41Z"/><path class="cls-2" d="M697.78,392.23s-139,12.43-139,165.92c0,115.42,89.18,147.24,151.4,147.24,0,0,98.47-1.69,126.53-78.81C853.33,581,853.33,554,853.33,554H801.48S809.86,686.72,704,686.72c-80.87,0-78.08-39.54-83-72.58s-24.89-141,12.45-174.21,111.61-54.46,160.23,19.28l-154,109.31,12.44,27L849.2,487.64S825.62,377.17,697.78,392.23Z"/><path class="cls-2" d="M936.3,861.27H909.85S889.63,673,886.53,606.16s-21.89-207.58,138.43-210c102.66-1.57,150.88,91.77,150.88,158.65s-37.33,152.45-127.56,152.45c-36.08,0-79.31-15.56-79.31-15.56l6.22-15.57s66.89,34.23,104.22-4.65,38.88-85.56,38.88-135.34S1101.18,416.38,1025,416.38s-93.33,62.23-93.33,129.12S936.3,861.27,936.3,861.27Z"/><path class="cls-1" d="M145.8,742.39a26.48,26.48,0,0,0-11.13-2.63c-12.55,0-21,8.5-21,21V779h31.57V794.6H113.62v66.57H97V759.8c0-21,17.6-35.81,37.84-35.81a42.38,42.38,0,0,1,19.82,5Z"/><path class="cls-2" d="M199.92,863.48a45.05,45.05,0,1,1,0-90.1c24.83,0,45.67,20,45.67,45S224.75,863.48,199.92,863.48Zm0-73.89c-15.37,0-28.43,13.7-28.43,28.84s13.06,28.85,28.43,28.85,29.25-13.27,29.25-28.85S215.28,789.59,199.92,789.59Z"/><path class="cls-2" d="M280.37,811.49v49.68H263.11V775.7h17.26v7.37h.42c5.9-7,12.21-9.47,21.26-9.47v16.63C289.42,790.23,280.37,798.86,280.37,811.49Z"/><path class="cls-2" d="M434.05,861.17V808.11c0-10.73-9.47-17.67-19.57-17.67-11.79,0-20,9.46-20,21v49.68H377.22V808.11c0-10.73-9.47-17.67-19.58-17.67-11.78,0-20.21,9.46-20.21,21v49.68H320.18V775.7h17.25v7.37h.43a24.93,24.93,0,0,1,19.78-9.47c10.73,0,21.9,4.41,28.63,12.83h.63a36.5,36.5,0,0,1,27.58-12.83c19.15,0,36.84,14.73,36.84,34.51v53.06Z"/><path class="cls-2" d="M533.89,861.17v-7.38h-.42c-5.68,6.12-12,9.69-20.62,9.69a45.05,45.05,0,1,1,0-90.1c12.41,0,28,4.42,38.31,11.59v76.2Zm0-64.84c-5.47-4.22-14.32-6.74-21-6.74-15.16,0-28.43,13.7-28.43,28.84s13.27,28.85,28.43,28.85a28.85,28.85,0,0,0,21-9.49Z"/><path class="cls-2" d="M611.61,863.27c-20.63,0-38.52-14.74-38.52-36V766.86h17.25v8.84h34.11v16.21H590.34V826c0,12.64,8.22,20.85,20.85,20.85a23.76,23.76,0,0,0,12-3l9.47,13.89A43.69,43.69,0,0,1,611.61,863.27Z"/><path class="cls-2" d="M656.89,764.12l-14.94-15,14.94-14.73,15,14.73Zm-8.62,97V775.7h17.26v85.47Z"/><path class="cls-2" d="M728.28,863.48a45.05,45.05,0,1,1,0-90.1c24.84,0,45.67,20,45.67,45S753.12,863.48,728.28,863.48Zm0-73.89c-15.37,0-28.43,13.7-28.43,28.84s13.06,28.85,28.43,28.85,29.25-13.27,29.25-28.85S743.64,789.59,728.28,789.59Z"/><path class="cls-2" d="M851.25,861.17V811.49c0-12.63-9-21.26-21.47-21.26-12.63,0-21.69,8.63-21.69,21.26v49.68H790.84V775.7h17.25v7.37h.43c5.89-7.16,12.21-9.47,21.26-9.47,20.2,0,38.94,15.78,38.94,36.62v50.95Z"/><path class="cls-3" d="M1899.94,269.82c-125.56,14.37-258.67,51.8-381.51,84-46.27,12.12-232.39,95.73-98.85,99.18,82.64,2.14,276.53-105,323-18.65,26.16,48.63-8.3,125.38-13.81,176-4.07,37.25-28.89,153.08-5.33,184.85,74.89,100.93,163.46-192.94,175-239.57C1919.25,471.18,1925.05,354.62,1899.94,269.82Z"/><path class="cls-4" d="M97.73,978.56v78.64H90.5V978.56Z"/><path class="cls-4" d="M121.5,978.56l44.16,66.54h.22V978.56h7.22v78.64H165l-44.17-66.52h-.21v66.52h-7.22V978.56Z"/><path class="cls-4" d="M193.48,1041.44a16.51,16.51,0,0,0,5.25,6.52,21.59,21.59,0,0,0,7.92,3.45,42.36,42.36,0,0,0,9.77,1,26.5,26.5,0,0,0,6.47-.87,22,22,0,0,0,6.53-2.81,16.67,16.67,0,0,0,5-5,12.94,12.94,0,0,0,2-7.32,10.94,10.94,0,0,0-1.42-5.72,13.54,13.54,0,0,0-3.71-4.08,21.26,21.26,0,0,0-5.05-2.7,47.48,47.48,0,0,0-5.42-1.71L204,1018a49.58,49.58,0,0,1-6.42-2.2,18,18,0,0,1-5.47-3.52,16.78,16.78,0,0,1-3.77-5.4,19.15,19.15,0,0,1-1.43-7.81,25.78,25.78,0,0,1,1.06-6.73,18.77,18.77,0,0,1,4-7.27,23.06,23.06,0,0,1,8-5.78c3.39-1.59,7.75-2.37,13.06-2.37a36.1,36.1,0,0,1,10.72,1.55,25.75,25.75,0,0,1,8.92,4.62,22.92,22.92,0,0,1,6.1,7.65,23.53,23.53,0,0,1,2.28,10.63h-7.21a19,19,0,0,0-2-7.88,17.54,17.54,0,0,0-4.56-5.61,19.9,19.9,0,0,0-6.48-3.42,25.76,25.76,0,0,0-7.7-1.15,31.25,31.25,0,0,0-7.16.82,17.73,17.73,0,0,0-6.06,2.65,13.45,13.45,0,0,0-4.19,4.79,15.5,15.5,0,0,0-1.59,7.38,11.8,11.8,0,0,0,.9,4.79,10.13,10.13,0,0,0,2.49,3.47,13.56,13.56,0,0,0,3.66,2.32,26.44,26.44,0,0,0,4.41,1.42l18.48,4.74a54.22,54.22,0,0,1,7.59,2.69,25.59,25.59,0,0,1,6.26,4,16.87,16.87,0,0,1,4.25,5.79,19.9,19.9,0,0,1,1.54,8.26,30.44,30.44,0,0,1-.27,3.52,18.22,18.22,0,0,1-1.27,4.69,22.93,22.93,0,0,1-2.87,5,17.7,17.7,0,0,1-5.1,4.57,28.75,28.75,0,0,1-8,3.31,45.93,45.93,0,0,1-11.47,1.27,47.27,47.27,0,0,1-12.43-1.58,26.72,26.72,0,0,1-9.76-4.92,21.36,21.36,0,0,1-6.21-8.47,28.47,28.47,0,0,1-1.86-12.44h7.22A22.78,22.78,0,0,0,193.48,1041.44Z"/><path class="cls-4" d="M307.09,978.56v6.38H280.65v72.26h-7.22V984.94H247.1v-6.38Z"/><path class="cls-4" d="M322,978.56v78.64h-7.22V978.56Z"/><path class="cls-4" d="M389.68,978.56v6.38H363.24v72.26H356V984.94H329.69v-6.38Z"/><path class="cls-4" d="M403.27,978.56v48.7a39.28,39.28,0,0,0,1.49,11.61,19.7,19.7,0,0,0,4.34,7.82,16.88,16.88,0,0,0,7,4.41,29.7,29.7,0,0,0,9.34,1.36,30.19,30.19,0,0,0,9.45-1.36,16.75,16.75,0,0,0,7-4.41,19.6,19.6,0,0,0,4.36-7.82,39.64,39.64,0,0,0,1.48-11.61v-48.7H455v50.34a39.43,39.43,0,0,1-1.65,11.5,25.63,25.63,0,0,1-5.2,9.55,24.65,24.65,0,0,1-9.14,6.43,39.55,39.55,0,0,1-27,0,24.66,24.66,0,0,1-9.12-6.43,25.63,25.63,0,0,1-5.2-9.55,39.43,39.43,0,0,1-1.65-11.5V978.56Z"/><path class="cls-4" d="M521.43,978.56v6.38H495v72.26h-7.21V984.94H461.44v-6.38Z"/><path class="cls-4" d="M590.13,978.56a44.28,44.28,0,0,1,9.17.94,21.83,21.83,0,0,1,7.76,3.19,16.9,16.9,0,0,1,5.36,5.95,19.11,19.11,0,0,1,2,9.2,18.92,18.92,0,0,1-1,6,18.43,18.43,0,0,1-2.71,5.3,17.31,17.31,0,0,1-4.14,4,14.74,14.74,0,0,1-5.36,2.32v.22a17.71,17.71,0,0,1,11.68,6.23,19.53,19.53,0,0,1,4.35,12.95,32.68,32.68,0,0,1-.32,4.23,21.1,21.1,0,0,1-1.27,4.85,20.85,20.85,0,0,1-2.76,4.9,16.78,16.78,0,0,1-4.83,4.25,29,29,0,0,1-7.43,3,42.14,42.14,0,0,1-10.56,1.15H558.06V978.56Zm0,34.48a24.14,24.14,0,0,0,7.53-1,15.47,15.47,0,0,0,5.31-2.86,11.89,11.89,0,0,0,3.18-4.25,12.61,12.61,0,0,0,1.06-5.16q0-14.78-17.08-14.78H565.28V1013Zm0,37.78a39.88,39.88,0,0,0,7.64-.71,17,17,0,0,0,6.37-2.6,13.21,13.21,0,0,0,4.35-5,17.44,17.44,0,0,0,1.59-7.88q0-7.61-5.15-11.42c-3.43-2.51-8.37-3.79-14.8-3.79H565.28v31.4Z"/><path class="cls-4" d="M663.59,978.56a31.35,31.35,0,0,1,8.86,1.22,20.91,20.91,0,0,1,7.33,3.68,17.75,17.75,0,0,1,5,6.4,21.19,21.19,0,0,1,1.86,9.2,22.74,22.74,0,0,1-3.72,13,16.93,16.93,0,0,1-11,7v.21a16.42,16.42,0,0,1,6.16,2.06,12.29,12.29,0,0,1,4,3.8,15.68,15.68,0,0,1,2.23,5.33,40.28,40.28,0,0,1,.9,6.55c.07,1.33.14,2.93.21,4.85s.21,3.83.42,5.78a37.47,37.47,0,0,0,1,5.51,10.63,10.63,0,0,0,1.86,4h-8a9.94,9.94,0,0,1-1-2.68,23.7,23.7,0,0,1-.53-3.32c-.1-1.13-.19-2.26-.26-3.34s-.15-2.06-.22-2.88q-.21-4.18-.69-8.31a23.33,23.33,0,0,0-2-7.39,12.92,12.92,0,0,0-4.45-5.23c-2-1.32-4.62-1.92-8-1.76H636.09v34.91h-7.22V978.56Zm-.54,37.34a18.67,18.67,0,0,0,6.27-1,15.58,15.58,0,0,0,5.2-3,14.67,14.67,0,0,0,3.56-4.78,14.87,14.87,0,0,0,1.32-6.45q0-7.26-4-11.47t-12.32-4.18h-27v31Z"/><path class="cls-4" d="M752,978.56v6.38H706.91v28.43h42.26v6.39H706.91v31.06h45.65v6.38H699.69V978.56Z"/><path class="cls-4" d="M814.56,978.56v6.38H788.12v72.26H780.9V984.94H754.57v-6.38Z"/><path class="cls-4" d="M819.87,1002.35a39.26,39.26,0,0,1,6.69-13.05,32.24,32.24,0,0,1,11.2-9,38,38,0,0,1,31.26,0,32.43,32.43,0,0,1,11.15,9,39.45,39.45,0,0,1,6.69,13.05,55.26,55.26,0,0,1,0,31.08,38.72,38.72,0,0,1-6.69,13,32.64,32.64,0,0,1-11.15,9,38,38,0,0,1-31.26,0,32.45,32.45,0,0,1-11.2-9,38.54,38.54,0,0,1-6.69-13,55.26,55.26,0,0,1,0-31.08Zm6.64,28.15a33.94,33.94,0,0,0,5.08,11.12,25.86,25.86,0,0,0,8.88,7.88,26.5,26.5,0,0,0,12.95,3,25.11,25.11,0,0,0,21.7-10.84,34.39,34.39,0,0,0,5.1-11.12,49.2,49.2,0,0,0,0-25.27,34.72,34.72,0,0,0-5.1-11.09,26.79,26.79,0,0,0-43.53,0,34.26,34.26,0,0,0-5.08,11.09,49.2,49.2,0,0,0,0,25.27Z"/><path class="cls-4" d="M908.31,978.56l44.16,66.54h.22V978.56h7.21v78.64h-8.07l-44.16-66.52h-.22v66.52h-7.21V978.56Z"/><path class="cls-4" d="M1030.82,978.56q17.31.45,26.07,10.08t8.75,29.24q0,19.61-8.75,29.25t-26.07,10.07H1004.6V978.56Zm-3.61,72.26a48.55,48.55,0,0,0,14.08-1.81,22.54,22.54,0,0,0,9.71-5.79,24.21,24.21,0,0,0,5.63-10.25,64.15,64.15,0,0,0,0-30.18,24.27,24.27,0,0,0-5.63-10.25,22.5,22.5,0,0,0-9.71-5.77,48.5,48.5,0,0,0-14.08-1.83h-15.39v65.88Z"/><path class="cls-4" d="M1087.84,978.56v26.77h-6.69V978.56Z"/><path class="cls-4" d="M1159.18,978.56v6.38h-45.12v28.43h42.24v6.39h-42.24v31.06h45.64v6.38h-52.86V978.56Z"/><path class="cls-4" d="M1196,978.56q17.29.45,26.07,10.08t8.75,29.24q0,19.61-8.75,29.25T1196,1057.2h-26.22V978.56Zm-3.61,72.26a48.36,48.36,0,0,0,14.06-1.81,22.43,22.43,0,0,0,9.73-5.79,24.32,24.32,0,0,0,5.63-10.25,64.5,64.5,0,0,0,0-30.18,24.38,24.38,0,0,0-5.63-10.25,22.4,22.4,0,0,0-9.73-5.77,48.31,48.31,0,0,0-14.06-1.83H1177v65.88Z"/><path class="cls-4" d="M1249,978.56v48.7a40,40,0,0,0,1.48,11.61,19.72,19.72,0,0,0,4.36,7.82,16.81,16.81,0,0,0,7,4.41,33.13,33.13,0,0,0,18.79,0,16.75,16.75,0,0,0,7-4.41,19.7,19.7,0,0,0,4.34-7.82,39.25,39.25,0,0,0,1.5-11.61v-48.7h7.22v50.34a39.43,39.43,0,0,1-1.66,11.5,25.61,25.61,0,0,1-5.19,9.55,24.7,24.7,0,0,1-9.13,6.43,39.55,39.55,0,0,1-27,0,24.7,24.7,0,0,1-9.13-6.43,25.65,25.65,0,0,1-5.21-9.55,39.42,39.42,0,0,1-1.64-11.5V978.56Z"/><path class="cls-4" d="M1367.54,994.25a22.47,22.47,0,0,0-5.32-6,23.91,23.91,0,0,0-6.9-3.69,24.73,24.73,0,0,0-7.91-1.26,26.42,26.42,0,0,0-13,3,25.87,25.87,0,0,0-8.86,7.87,34.72,34.72,0,0,0-5.1,11.09,49.49,49.49,0,0,0,0,25.27,34.39,34.39,0,0,0,5.1,11.12,25.8,25.8,0,0,0,8.86,7.88,26.53,26.53,0,0,0,13,3,22.27,22.27,0,0,0,9.56-2,22.82,22.82,0,0,0,7.32-5.39,28,28,0,0,0,5-8,34.23,34.23,0,0,0,2.44-9.84H1379a44.32,44.32,0,0,1-3.29,13.11,32.71,32.71,0,0,1-6.59,9.89,27.79,27.79,0,0,1-9.5,6.28,32,32,0,0,1-12.16,2.21,34.82,34.82,0,0,1-15.66-3.36,32.64,32.64,0,0,1-11.2-9,39.09,39.09,0,0,1-6.69-13,55.26,55.26,0,0,1,0-31.08,39.83,39.83,0,0,1,6.69-13.05,32.42,32.42,0,0,1,11.2-9,34.82,34.82,0,0,1,15.66-3.36,34.17,34.17,0,0,1,10.56,1.65,30.56,30.56,0,0,1,9.36,4.9,28.58,28.58,0,0,1,7,8,27.72,27.72,0,0,1,3.56,10.89h-7.24A25.67,25.67,0,0,0,1367.54,994.25Z"/><path class="cls-4" d="M1420.24,978.56,1450,1057.2h-7.74l-9.24-24.43h-34.51l-9.13,24.43h-7.65l30.48-78.64Zm10.3,47.81-14.66-40.31-15.18,40.31Z"/><path class="cls-4" d="M1501.56,978.56v6.38h-26.42v72.26h-7.23V984.94h-26.32v-6.38Z"/><path class="cls-4" d="M1516.43,978.56v78.64h-7.22V978.56Z"/><path class="cls-4" d="M1530.44,1002.35a39.08,39.08,0,0,1,6.69-13.05,32.39,32.39,0,0,1,11.19-9,34.89,34.89,0,0,1,15.67-3.36,34.43,34.43,0,0,1,15.6,3.36,32.34,32.34,0,0,1,11.15,9,39.08,39.08,0,0,1,6.69,13.05,55.26,55.26,0,0,1,0,31.08,38.36,38.36,0,0,1-6.69,13,32.55,32.55,0,0,1-11.15,9,34.43,34.43,0,0,1-15.6,3.36,34.89,34.89,0,0,1-15.67-3.36,32.6,32.6,0,0,1-11.19-9,38.36,38.36,0,0,1-6.69-13,55.26,55.26,0,0,1,0-31.08Zm6.64,28.15a34.37,34.37,0,0,0,5.09,11.12,25.92,25.92,0,0,0,8.87,7.88,26.56,26.56,0,0,0,13,3,25.12,25.12,0,0,0,21.71-10.84,34.16,34.16,0,0,0,5.09-11.12,48.92,48.92,0,0,0,0-25.27,34.49,34.49,0,0,0-5.09-11.09A25.18,25.18,0,0,0,1564,983.3a26.45,26.45,0,0,0-13,3,26,26,0,0,0-8.87,7.87,34.7,34.7,0,0,0-5.09,11.09,48.92,48.92,0,0,0,0,25.27Z"/><path class="cls-4" d="M1618.87,978.56l44.18,66.54h.21V978.56h7.22v78.64h-8.07l-44.17-66.52H1618v66.52h-7.21V978.56Z"/><path class="cls-4" d="M1748.83,978.56a26.77,26.77,0,0,1,9.24,1.5,19.07,19.07,0,0,1,7.11,4.39,20.05,20.05,0,0,1,4.57,7.11,29,29,0,0,1,0,19,19.62,19.62,0,0,1-4.57,7.09,19.24,19.24,0,0,1-7.11,4.41,27,27,0,0,1-9.24,1.48H1722.4v33.71h-7.22V978.56Zm-1.6,38.55c5,0,9.1-1.32,12.22-4s4.67-6.67,4.67-12.11-1.57-9.47-4.67-12.11-7.18-4-12.22-4H1722.4v32.17Z"/><path class="cls-4" d="M1834.39,978.56v6.38h-45.12v28.43h42.25v6.39h-42.25v31.06h45.64v6.38h-52.86V978.56Z"/><path class="cls-4" d="M1879.74,978.56a31.28,31.28,0,0,1,8.85,1.22,20.78,20.78,0,0,1,7.34,3.68,17.73,17.73,0,0,1,5,6.4,21.19,21.19,0,0,1,1.85,9.2,22.81,22.81,0,0,1-3.71,13,16.88,16.88,0,0,1-11,7v.21a16.43,16.43,0,0,1,6.15,2.06,12.13,12.13,0,0,1,4,3.8,15.7,15.7,0,0,1,2.24,5.33,40.28,40.28,0,0,1,.9,6.55c.07,1.33.14,2.93.21,4.85s.23,3.83.44,5.78a33.9,33.9,0,0,0,1,5.51,10.33,10.33,0,0,0,1.84,4h-8a10.28,10.28,0,0,1-1-2.68,23.7,23.7,0,0,1-.52-3.32c-.11-1.13-.2-2.26-.27-3.34s-.14-2.06-.21-2.88q-.22-4.18-.69-8.31a23.6,23.6,0,0,0-2-7.39,12.89,12.89,0,0,0-4.47-5.23c-1.93-1.32-4.61-1.92-8-1.76h-27.38v34.91H1845V978.56Zm-.54,37.34a18.67,18.67,0,0,0,6.27-1,15.58,15.58,0,0,0,5.2-3,14.51,14.51,0,0,0,4.88-11.23q0-7.26-4-11.47t-12.32-4.18h-27v31Z"/><path class="cls-4" d="M1926.24,978.56l26.21,69,26.13-69h10.61v78.64H1982v-68h-.2l-25.92,68h-6.8l-26-68h-.21v68h-7.23V978.56Z"/><path class="cls-4" d="M2034.52,978.56l29.72,78.64h-7.74l-9.24-24.43h-34.51l-9.13,24.43H1996l30.48-78.64Zm10.3,47.81-14.66-40.31L2015,1026.37Z"/><path class="cls-4" d="M2079.1,978.56l44.18,66.54h.21V978.56h7.22v78.64h-8.07l-44.17-66.52h-.2v66.52h-7.22V978.56Z"/><path class="cls-4" d="M2198.23,978.56v6.38H2153.1v28.43h42.25v6.39H2153.1v31.06h45.65v6.38h-52.86V978.56Z"/><path class="cls-4" d="M2216.79,978.56,2261,1045.1h.21V978.56h7.21v78.64h-8.07l-44.16-66.52H2216v66.52h-7.21V978.56Z"/><path class="cls-4" d="M2335.49,978.56v6.38h-26.42v72.26h-7.23V984.94h-26.32v-6.38Z"/><path class="cls-4" d="M2395,978.56v6.38h-45.12v28.43h42.24v6.39h-42.24v31.06h45.64v6.38h-52.86V978.56Z"/></g></svg>